<svg width="174" height="42" viewBox="0 0 174 42" fill="none" xmlns="http://www.w3.org/2000/svg">
<path d="M19.2614 6.82192V1H0.905273V41H19.2614V35.1781C15.5012 35.1781 11.8949 33.6842 9.23601 31.0253C6.57711 28.3664 5.08335 24.7603 5.08335 21C5.08335 17.2397 6.57711 13.6334 9.23601 10.9746C11.8949 8.31568 15.5012 6.82192 19.2614 6.82192Z" fill="#394149"/>
<path d="M19.2615 6.8219V35.1781C23.0218 35.1781 26.6281 33.6842 29.287 31.0253C31.9459 28.3664 33.4396 24.7603 33.4396 21C33.4396 17.2397 31.9459 13.6334 29.287 10.9746C26.6281 8.31567 23.0218 6.8219 19.2615 6.8219Z" fill="#394149"/>
<path d="M42.2699 31.5H38.6299V11.9H46.7799C47.8999 11.9 48.9132 12.17 49.8199 12.71C50.7265 13.25 51.4499 13.9867 51.9899 14.92C52.5299 15.8534 52.7999 16.9 52.7999 18.06C52.7999 19.2334 52.5299 20.2934 51.9899 21.24C51.4499 22.18 50.7265 22.93 49.8199 23.49C48.9132 24.05 47.8999 24.33 46.7799 24.33H42.2699V31.5ZM42.2699 15.26V20.97H46.5299C46.9965 20.97 47.4199 20.84 47.7999 20.58C48.1865 20.32 48.4965 19.9734 48.7299 19.54C48.9632 19.1134 49.0799 18.63 49.0799 18.09C49.0799 17.55 48.9632 17.07 48.7299 16.65C48.4965 16.23 48.1865 15.8934 47.7999 15.64C47.4199 15.3867 46.9965 15.26 46.5299 15.26H42.2699ZM59.5999 31.78C58.0532 31.78 56.6865 31.4534 55.4999 30.8C54.3132 30.1467 53.3899 29.2567 52.7299 28.13C52.0699 26.9967 51.7399 25.7034 51.7399 24.25C51.7399 23.09 51.9265 22.0334 52.2999 21.08C52.6732 20.1334 53.1899 19.31 53.8499 18.61C54.5099 17.91 55.3032 17.3667 56.2299 16.98C57.1565 16.6 58.1699 16.41 59.2699 16.41C60.2365 16.41 61.1399 16.5967 61.9799 16.97C62.8199 17.3434 63.5499 17.85 64.1699 18.49C64.7832 19.1367 65.2532 19.9034 65.5799 20.79C65.9066 21.6767 66.0599 22.6434 66.0399 23.69L66.0199 24.89H54.0599L53.4199 22.54H63.1299L62.6799 23.02V22.4C62.6265 21.82 62.4399 21.31 62.1199 20.87C61.8066 20.4367 61.4032 20.0934 60.9099 19.84C60.4099 19.5867 59.8632 19.46 59.2699 19.46C58.3565 19.46 57.5865 19.6367 56.9599 19.99C56.3332 20.3434 55.8599 20.8534 55.5399 21.52C55.2265 22.18 55.0699 23.0067 55.0699 24C55.0699 24.9467 55.2699 25.7767 55.6699 26.49C56.0699 27.1967 56.6399 27.7434 57.3799 28.13C58.1132 28.51 58.9765 28.7 59.9699 28.7C60.6565 28.7 61.2899 28.5867 61.8699 28.36C62.4499 28.14 63.0765 27.74 63.7499 27.16L65.4599 29.54C64.9532 30.0067 64.3765 30.4034 63.7299 30.73C63.0899 31.0567 62.4132 31.3134 61.6999 31.5C60.9932 31.6867 60.2932 31.78 59.5999 31.78ZM69.5199 31.5H66.0399V10.78H69.5199V31.5ZM76.9599 31.78C75.4865 31.78 74.1732 31.45 73.0199 30.79C71.8599 30.1234 70.9432 29.2134 70.2699 28.06C69.5965 26.9 69.2599 25.5834 69.2599 24.11C69.2599 22.6367 69.5965 21.32 70.2699 20.16C70.9432 19 71.8599 18.09 73.0199 17.43C74.1732 16.77 75.4865 16.44 76.9599 16.44C78.4199 16.44 79.7265 16.77 80.8799 17.43C82.0399 18.09 82.9499 19 83.6099 20.16C84.2765 21.32 84.6099 22.6367 84.6099 24.11C84.6099 25.5834 84.2765 26.9 83.6099 28.06C82.9499 29.2134 82.0399 30.1234 80.8799 30.79C79.7265 31.45 78.4199 31.78 76.9599 31.78ZM76.9599 28.73C77.7665 28.73 78.4832 28.5234 79.1099 28.11C79.7299 27.7034 80.2232 27.1534 80.5899 26.46C80.9565 25.7667 81.1299 24.9834 81.1099 24.11C81.1299 23.21 80.9565 22.4167 80.5899 21.73C80.2232 21.0367 79.7299 20.49 79.1099 20.09C78.4832 19.69 77.7665 19.49 76.9599 19.49C76.1599 19.49 75.4365 19.69 74.7899 20.09C74.1499 20.49 73.6532 21.04 73.2999 21.74C72.9399 22.44 72.7599 23.23 72.7599 24.11C72.7599 24.9834 72.9399 25.7667 73.2999 26.46C73.6532 27.1534 74.1499 27.7034 74.7899 28.11C75.4365 28.5234 76.1599 28.73 76.9599 28.73ZM88.8399 31.5H85.2199V11.9H88.6699L95.8099 23.52L93.7899 23.49L101.02 11.9H104.29V31.5H100.68V24.14C100.68 22.46 100.723 20.9467 100.81 19.6C100.89 18.2534 101.033 16.92 101.24 15.6L101.69 16.8L95.6099 26.18H93.7599L87.8799 16.88L88.2799 15.6C88.4799 16.8467 88.6232 18.13 88.7099 19.45C88.7965 20.7634 88.8399 22.3267 88.8399 24.14V31.5ZM110.98 31.78C109.92 31.78 108.997 31.5434 108.21 31.07C107.43 30.59 106.833 29.9067 106.42 29.02C106.007 28.1334 105.8 27.0734 105.8 25.84V16.74H109.25V25.12C109.25 25.9 109.37 26.5667 109.61 27.12C109.857 27.6667 110.213 28.09 110.68 28.39C111.147 28.69 111.707 28.84 112.36 28.84C112.84 28.84 113.283 28.76 113.69 28.6C114.09 28.44 114.44 28.2167 114.74 27.93C115.033 27.6434 115.267 27.2967 115.44 26.89C115.607 26.49 115.69 26.0567 115.69 25.59V16.74H119.13V31.5H115.77L115.72 28.42L116.33 28.08C116.11 28.7934 115.733 29.4234 115.2 29.97C114.667 30.5234 114.037 30.9634 113.31 31.29C112.583 31.6167 111.807 31.78 110.98 31.78ZM120.08 31.5V16.74H123.44L123.5 19.77L122.86 20.1C123.047 19.4334 123.41 18.8234 123.95 18.27C124.49 17.7167 125.133 17.2734 125.88 16.94C126.627 16.6067 127.393 16.44 128.18 16.44C129.3 16.44 130.237 16.6634 130.99 17.11C131.743 17.5567 132.313 18.2267 132.7 19.12C133.08 20.02 133.27 21.14 133.27 22.48V31.5H129.83V22.74C129.83 21.9934 129.727 21.37 129.52 20.87C129.313 20.3767 128.997 20.0134 128.57 19.78C128.137 19.5467 127.613 19.44 127 19.46C126.493 19.46 126.03 19.54 125.61 19.7C125.19 19.86 124.827 20.0834 124.52 20.37C124.213 20.6567 123.97 20.9867 123.79 21.36C123.617 21.7334 123.53 22.1467 123.53 22.6V31.5H121.82C121.487 31.5 121.173 31.5 120.88 31.5C120.593 31.5 120.327 31.5 120.08 31.5ZM139.99 31.78C138.683 31.78 137.513 31.45 136.48 30.79C135.44 30.1234 134.617 29.2167 134.01 28.07C133.403 26.9234 133.1 25.6034 133.1 24.11C133.1 22.6367 133.4 21.32 134 20.16C134.6 19 135.417 18.09 136.45 17.43C137.483 16.77 138.653 16.44 139.96 16.44C140.673 16.44 141.36 16.55 142.02 16.77C142.687 16.9967 143.28 17.3 143.8 17.68C144.32 18.0667 144.737 18.4934 145.05 18.96C145.357 19.4267 145.527 19.91 145.56 20.41L144.64 20.52V10.78H148.08V31.5H144.75L144.67 28.03L145.34 28.08C145.32 28.5467 145.157 28.9967 144.85 29.43C144.543 29.8567 144.147 30.2467 143.66 30.6C143.173 30.96 142.61 31.2467 141.97 31.46C141.323 31.6734 140.663 31.78 139.99 31.78ZM140.66 28.87C141.467 28.87 142.177 28.6634 142.79 28.25C143.41 27.8434 143.89 27.2834 144.23 26.57C144.577 25.8634 144.75 25.0434 144.75 24.11C144.75 23.1967 144.577 22.38 144.23 21.66C143.89 20.94 143.41 20.38 142.79 19.98C142.177 19.58 141.467 19.38 140.66 19.38C139.86 19.38 139.153 19.58 138.54 19.98C137.92 20.38 137.437 20.94 137.09 21.66C136.75 22.38 136.58 23.1967 136.58 24.11C136.58 25.0434 136.75 25.8634 137.09 26.57C137.437 27.2834 137.92 27.8434 138.54 28.25C139.153 28.6634 139.86 28.87 140.66 28.87ZM155.67 31.78C154.197 31.78 152.88 31.45 151.72 30.79C150.567 30.1234 149.653 29.2134 148.98 28.06C148.307 26.9 147.97 25.5834 147.97 24.11C147.97 22.6367 148.307 21.32 148.98 20.16C149.653 19 150.567 18.09 151.72 17.43C152.88 16.77 154.197 16.44 155.67 16.44C157.13 16.44 158.437 16.77 159.59 17.43C160.75 18.09 161.66 19 162.32 20.16C162.987 21.32 163.32 22.6367 163.32 24.11C163.32 25.5834 162.987 26.9 162.32 28.06C161.66 29.2134 160.75 30.1234 159.59 30.79C158.437 31.45 157.13 31.78 155.67 31.78ZM155.67 28.73C156.477 28.73 157.19 28.5234 157.81 28.11C158.437 27.7034 158.933 27.1534 159.3 26.46C159.66 25.7667 159.833 24.9834 159.82 24.11C159.833 23.21 159.66 22.4167 159.3 21.73C158.933 21.0367 158.437 20.49 157.81 20.09C157.19 19.69 156.477 19.49 155.67 19.49C154.87 19.49 154.147 19.69 153.5 20.09C152.86 20.49 152.36 21.04 152 21.74C151.647 22.44 151.47 23.23 151.47 24.11C151.47 24.9834 151.647 25.7667 152 26.46C152.36 27.1534 152.86 27.7034 153.5 28.11C154.147 28.5234 154.87 28.73 155.67 28.73Z" fill="#394149"/>
<path d="M169 18C171.209 18 173 16.2091 173 14C173 11.7909 171.209 10 169 10C166.791 10 165 11.7909 165 14C165 16.2091 166.791 18 169 18Z" fill="#FB9E1D"/>
</svg>
